<svg viewBox="0 0 48 48" xmlns="http://www.w3.org/2000/svg" height="48" width="48">
    <g transform="translate(-12.96, -6)">
        <path d="M13.07,49.617V14.085c0-.259.112-.389.334-.389.592,0,1.02-.009,1.836-.028s1.7-.037,2.642-.055l3-.056q1.585-.027,3.141-.028a20.9,20.9,0,0,1,7.117,1.057,12.354,12.354,0,0,1,4.644,2.836,10.881,10.881,0,0,1,2.53,3.92,13.02,13.02,0,0,1,.778,4.476,12.353,12.353,0,0,1-2.058,7.34,11.618,11.618,0,0,1-5.56,4.2,22.126,22.126,0,0,1-7.785,1.307q-1.224,0-1.723-.028t-1.5-.028V49.562a.443.443,0,0,1-.5.5H13.459Q13.07,50.062,13.07,49.617Zm7.4-29.249v11.51q.722.056,1.334.056h1.835a13.115,13.115,0,0,0,3.976-.556,6,6,0,0,0,2.837-1.835,5.339,5.339,0,0,0,1.084-3.559,5.621,5.621,0,0,0-.806-3.058,5.187,5.187,0,0,0-2.419-1.974,10.3,10.3,0,0,0-4.06-.7q-1.334,0-2.363.028T20.468,20.368Z"
              transform="translate(0 1.071)" style="fill: inherit;"></path>
        <path d="M37.466,30.2l-3.918-.116c-.26-.037-.39-.167-.39-.389V24.816a.344.344,0,0,1,.39-.389l3.918.043v-.109a41.242,41.242,0,0,1,.277-4.978,11.024,11.024,0,0,1,.89-2.808A9.65,9.65,0,0,1,41.8,12.849,9.3,9.3,0,0,1,47.252,11.4a14.226,14.226,0,0,1,1.613.083,8.037,8.037,0,0,1,1.608.306.572.572,0,0,1,.39.556v5.505q0,.39-.445.278c-.26-.037-.867-.056-1.163-.056h-.834a5.937,5.937,0,0,0-2.206.389A2.38,2.38,0,0,0,45.1,19.772a6.9,6.9,0,0,0-.362,2.474V24.47h5.433c.222,0,.361.037.417.111a.554.554,0,0,1,.084.334v4.894q0,.39-.5.389H44.741l.043,20.642a.747.747,0,0,1-.083.334c-.056.111-.194.167-.418.167h-6.33c-.3,0-.445-.167-.445-.5Z"
              transform="translate(10.1 0)" style="fill: inherit;"></path>
    </g>
</svg>